<svg width="14" height="15" viewBox="0 0 14 15" fill="none" xmlns="http://www.w3.org/2000/svg">
    <path d="M11.383 15a2.525 2.525 0 0 1-2.036-1 2.623 2.623 0 0 1-.448-2.254L4.3 9.07a2.532 2.532 0 0 1-2.915.392A2.625 2.625 0 0 1 .02 6.811a2.596 2.596 0 0 1 1.98-2.215 2.547 2.547 0 0 1 2.722 1.132L8.898 3.3a2.655 2.655 0 0 1-.085-.636C8.802 1.412 9.656.325 10.857.06a2.582 2.582 0 0 1 2.92 1.508 2.669 2.669 0 0 1-.858 3.217 2.559 2.559 0 0 1-3.268-.2L5.133 7.213a2.542 2.542 0 0 1-.08.574l4.598 2.674a2.532 2.532 0 0 1 3.084-.299 2.635 2.635 0 0 1 1.122 2.94A2.574 2.574 0 0 1 11.383 15zm0-3.739c-.608 0-1.101.503-1.101 1.122 0 .62.493 1.122 1.101 1.122.609 0 1.102-.503 1.102-1.122 0-.62-.493-1.122-1.102-1.122zM2.57 6.028c-.609 0-1.102.502-1.102 1.121 0 .62.493 1.122 1.102 1.122.608 0 1.102-.502 1.102-1.122 0-.62-.494-1.121-1.102-1.121zm8.814-4.487c-.608 0-1.101.503-1.101 1.122 0 .62.493 1.122 1.101 1.122.609 0 1.102-.503 1.102-1.122 0-.62-.493-1.122-1.102-1.122z" fill="#CACACA"/>
</svg>
