<svg width="150" height="107" viewBox="0 0 150 107" fill="none" xmlns="http://www.w3.org/2000/svg">
    <path d="M40.169 44.699c4.546 0 8.232-3.718 8.232-8.305 0-4.586-3.686-8.304-8.232-8.304-4.547 0-8.233 3.718-8.233 8.304 0 4.587 3.686 8.305 8.233 8.305zM108.732 44.699c4.547 0 8.232-3.718 8.232-8.305 0-4.586-3.685-8.304-8.232-8.304-4.547 0-8.233 3.718-8.233 8.304 0 4.587 3.686 8.305 8.233 8.305zM135.276 44.699c4.546 0 8.232-3.718 8.232-8.305 0-4.586-3.686-8.304-8.232-8.304-4.547 0-8.233 3.718-8.233 8.304 0 4.587 3.686 8.305 8.233 8.305zM12.302 16.61c4.547 0 8.233-3.719 8.233-8.305C20.535 3.718 16.849 0 12.302 0 7.756 0 4.07 3.718 4.07 8.305c0 4.586 3.685 8.304 8.232 8.304zM79.315 16.61c4.547 0 8.233-3.719 8.233-8.305C87.548 3.718 83.862 0 79.315 0c-4.546 0-8.232 3.718-8.232 8.305 0 4.586 3.686 8.304 8.232 8.304z" fill="#474747"/>
    <path d="M136.371 46.482a15.952 15.952 0 0 0-6.408 1.167 16.06 16.06 0 0 0-5.422 3.636c-2.244-3.202-5.947-4.803-11.111-4.803-3.862 0-6.968 1.026-9.317 3.08v-2.29H91.637v53.419c-1.825 1.847-3.761 2.765-5.793 2.765-2.746 0-4.285-1.601-4.624-4.74V27.52c0-4.316 1.853-6.476 5.56-6.48h3.995v-2.925H86.78c-5.223 0-9.544 1.602-12.962 4.804a15.397 15.397 0 0 0-3.826 5.284 15.52 15.52 0 0 0-1.306 6.41v57.214a20.529 20.529 0 0 0 1.26 7.67c-.53.608-1.16 1.227-1.16 1.227-1.827 1.84-3.767 2.76-5.82 2.76-2.782 0-4.329-1.621-4.64-4.862a14.362 14.362 0 0 1-.058-1.297V59.467c-.423-6.5-3.093-10.553-8.01-12.158a17.814 17.814 0 0 0-5.56-.806c-3.88 0-6.986 1.026-9.318 3.08v-2.29H22.974v53.398c-1.827 1.847-3.767 2.769-5.82 2.765-2.74 0-4.28-1.601-4.62-4.74V27.52c.015-4.32 1.869-6.48 5.562-6.48h3.994v-2.925h-3.994c-5.224 0-9.545 1.602-12.963 4.804a15.38 15.38 0 0 0-3.827 5.284A15.503 15.503 0 0 0 0 34.611v57.214c0 7.019 2.302 11.529 6.878 13.573.393.18.795.337 1.206.469 1.428.452 2.908.71 4.402.769.376 0 .746.037 1.138.037 3.88 0 6.987-1.026 9.322-3.079v2.306h12.455V52.486c1.823-1.843 3.754-2.765 5.793-2.765 2.783 0 4.33 1.621 4.64 4.862.037.411.064.838.064 1.303v37.846c.416 6.508 3.084 10.56 8.005 12.158 1.8.561 3.676.833 5.56.806 3.88 0 6.986-1.027 9.317-3.08a12.82 12.82 0 0 0 2.08-2.295 10.295 10.295 0 0 0 4.682 4.094c.392.18.795.337 1.206.469 1.428.451 2.908.71 4.402.769.376 0 .746.037 1.138.037 3.88 0 6.987-1.026 9.322-3.079v2.29h12.449V52.486c1.827-1.843 3.758-2.765 5.794-2.765 3.132 0 4.698 2.055 4.698 6.165V105.9h12.454V61.335a19.035 19.035 0 0 0-1.365-7.739c2.402-2.58 4.804-3.87 7.206-3.87 3.08 0 4.619 2.055 4.619 6.165v50.01H150V61.335c0-9.902-4.543-14.853-13.629-14.853z" fill="#474747"/>
</svg>
